# xmcd
#
# Track frame offsets:
# 150
# 19015
# 33000
# 42967
# 65725
# 80372
# 102045
# 119637
# 141870
# 181442
# 185487
# 203710
# 216945
# 230992
#
# Disc length: 3364 seconds
#
# Revision: 1
# Processed by: cddbd v1.5.2PL0 Copyright (c) Steve Scherf et al.
# Submitted via: Easy CD Ripper v2.27
#
DISCID=c90d220e
DTITLE=The Electric Flag - A Long Time Comin'
DYEAR=1968
DGENRE=Blues
TTITLE0=Killing Floor
TTITLE1=Groovin' Is Easy
TTITLE2=Over-Lovin' You
TTITLE3=She Should Have Just
TTITLE4=Wine
TTITLE5=Texas
TTITLE6=Sittin' In Circles
TTITLE7=You Don't Realize
TTITLE8=Another Country
TTITLE9=Easy Rider
TTITLE10=Sunny
TTITLE11=Mystery
TTITLE12=Look Into My Eyes
TTITLE13=Goin' Down Slow
EXTD=An American Music Band
EXTT0=
EXTT1=
EXTT2=
EXTT3=
EXTT4=
EXTT5=
EXTT6=
EXTT7=
EXTT8=
EXTT9=
EXTT10=
EXTT11=
EXTT12=
EXTT13=
PLAYORDER=
